<svg height="512" viewBox="0 0 512 512" width="512" xmlns="http://www.w3.org/2000/svg" xmlns:xlink="http://www.w3.org/1999/xlink"><linearGradient id="a" gradientUnits="userSpaceOnUse" x1="40.677" x2="576.108" y1="527.323" y2="-8.108" data-name="New Gradient Swatch 1"><stop offset="0" stop-color="#003f8a"/><stop offset=".518" stop-color="#00d7df"/><stop offset="1" stop-color="#006df0"/></linearGradient><linearGradient id="b" x1="148.677" x2="684.108" xlink:href="#a" y1="635.323" y2="99.892"/><linearGradient id="c" x1="100.677" x2="636.108" xlink:href="#a" y1="587.323" y2="51.892"/><linearGradient id="d" x1=".677" x2="536.108" xlink:href="#a" y1="487.323" y2="-48.108"/><linearGradient id="e" x1="16.677" x2="552.108" xlink:href="#a" y1="503.323" y2="-32.108"/><linearGradient id="f" x1="-58.488" x2="476.943" xlink:href="#a" y1="428.158" y2="-107.273"/><g><path d="m420 8h-216a28.031 28.031 0 0 0 -28 28v440a28.031 28.031 0 0 0 28 28h216a28.031 28.031 0 0 0 28-28v-440a28.031 28.031 0 0 0 -28-28zm-62.25 16-4 16h-83.5l-4-16zm74.25 452a12.01 12.01 0 0 1 -12 12h-216a12.01 12.01 0 0 1 -12-12v-440a12.01 12.01 0 0 1 12-12h45.75l6.49 25.94a8 8 0 0 0 7.76 6.06h96a8 8 0 0 0 7.76-6.06l6.49-25.94h45.75a12.01 12.01 0 0 1 12 12z" fill="url(#a)"/><path d="m336 464h-48a8 8 0 0 0 0 16h48a8 8 0 0 0 0-16z" fill="url(#b)"/><path d="m392 352h-160a8 8 0 0 0 -8 8v32a8 8 0 0 0 8 8h160a8 8 0 0 0 8-8v-32a8 8 0 0 0 -8-8zm-8 32h-144v-16h144z" fill="url(#c)"/><path d="m344 176a32 32 0 1 0 -32 32 32.036 32.036 0 0 0 32-32zm-32 16a16 16 0 1 1 16-16 16.019 16.019 0 0 1 -16 16z" fill="url(#d)"/><path d="m312 120a88 88 0 1 0 88 88 88.1 88.1 0 0 0 -88-88zm-40 147.833v-11.833a32.036 32.036 0 0 1 32-32h16a32.036 32.036 0 0 1 32 32v11.833a71.835 71.835 0 0 1 -80 0zm95.919-14.545a48.058 48.058 0 0 0 -47.919-45.288h-16a48.058 48.058 0 0 0 -47.919 45.288 72 72 0 1 1 111.838 0z" fill="url(#e)"/><path d="m136 377.77v-240.2a48 48 0 0 0 -4.8-85.56 8 8 0 0 0 -11.2 7.33v23.72l-8 4-8-4v-23.72a8 8 0 0 0 -11.2-7.33 48 48 0 0 0 -4.8 85.56v240.2a48 48 0 0 0 4.8 85.56 8 8 0 0 0 11.2-7.33v-23.72l8-4 8 4v23.72a8 8 0 0 0 11.2 7.33 48 48 0 0 0 4.8-85.56zm0 62.74v-13.17a8.011 8.011 0 0 0 -4.42-7.16l-16-8a8.049 8.049 0 0 0 -7.16 0l-16 8a8.011 8.011 0 0 0 -4.42 7.16v13.17a32.005 32.005 0 0 1 11.2-50.5 7.988 7.988 0 0 0 4.8-7.33v-250.02a7.988 7.988 0 0 0 -4.8-7.33 32.005 32.005 0 0 1 -11.2-50.5v13.17a8.011 8.011 0 0 0 4.42 7.16l16 8a8.049 8.049 0 0 0 7.16 0l16-8a8.011 8.011 0 0 0 4.42-7.16v-13.17a32.005 32.005 0 0 1 -11.2 50.5 7.988 7.988 0 0 0 -4.8 7.33v250.02a7.988 7.988 0 0 0 4.8 7.33 32.005 32.005 0 0 1 11.2 50.5z" fill="url(#f)"/></g></svg>